<svg width="32" height="32" viewBox="0 0 32 32" fill="none" xmlns="http://www.w3.org/2000/svg">
<g filter="url(#filter0_d_6_76)">
<path d="M30 14.0337C30 6.28315 23.7319 0 16 0C8.26806 0 2 6.28315 2 14.0337C2 21.0383 7.11963 26.8442 13.8125 27.8969V18.0903H10.2578V14.0337H13.8125V10.9419C13.8125 7.42471 15.9027 5.48192 19.1006 5.48192C20.6322 5.48192 22.2344 5.75601 22.2344 5.75601V9.20962H20.4691C18.7299 9.20962 18.1875 10.2914 18.1875 11.4013V14.0337H22.0703L21.4496 18.0903H18.1875V27.8969C24.8804 26.8442 30 21.0384 30 14.0337Z" fill="#1877F2"/>
</g>
<defs>
<filter id="filter0_d_6_76" x="0" y="0" width="32" height="31.8969" filterUnits="userSpaceOnUse" color-interpolation-filters="sRGB">
<feFlood flood-opacity="0" result="BackgroundImageFix"/>
<feColorMatrix in="SourceAlpha" type="matrix" values="0 0 0 0 0 0 0 0 0 0 0 0 0 0 0 0 0 0 127 0" result="hardAlpha"/>
<feOffset dy="2"/>
<feGaussianBlur stdDeviation="1"/>
<feComposite in2="hardAlpha" operator="out"/>
<feColorMatrix type="matrix" values="0 0 0 0 0 0 0 0 0 0 0 0 0 0 0 0 0 0 0.25 0"/>
<feBlend mode="normal" in2="BackgroundImageFix" result="effect1_dropShadow_6_76"/>
<feBlend mode="normal" in="SourceGraphic" in2="effect1_dropShadow_6_76" result="shape"/>
</filter>
</defs>
</svg>
