<svg width="20" height="20" viewBox="0 0 20 20" fill="none" xmlns="http://www.w3.org/2000/svg">
<path d="M8.33331 6.66668V5.00001C8.33331 4.55798 8.50891 4.13406 8.82147 3.8215C9.13403 3.50894 9.55795 3.33334 9.99998 3.33334H15.8333C16.2753 3.33334 16.6993 3.50894 17.0118 3.8215C17.3244 4.13406 17.5 4.55798 17.5 5.00001V15C17.5 15.442 17.3244 15.866 17.0118 16.1785C16.6993 16.4911 16.2753 16.6667 15.8333 16.6667H9.99998C9.55795 16.6667 9.13403 16.4911 8.82147 16.1785C8.50891 15.866 8.33331 15.442 8.33331 15V13.3333" stroke="black" stroke-width="1.66667" stroke-linecap="round" stroke-linejoin="round"/>
<path d="M12.5 10H2.5M2.5 10L5 7.5M2.5 10L5 12.5" stroke="black" stroke-width="1.66667" stroke-linecap="round" stroke-linejoin="round"/>
</svg>
