<svg width="28" height="28" viewBox="0 0 28 28" fill="none" xmlns="http://www.w3.org/2000/svg">
<g filter="url(#filter0_d_6_67)">
<path d="M25.4398 11.7151H24.5V11.6667H14V16.3333H20.5934C19.6315 19.0499 17.0468 21 14 21C10.1343 21 7.00001 17.8657 7.00001 14C7.00001 10.1342 10.1343 7 14 7C15.7844 7 17.4078 7.67316 18.6439 8.77275L21.9438 5.47283C19.8602 3.53091 17.073 2.33333 14 2.33333C7.55709 2.33333 2.33334 7.55708 2.33334 14C2.33334 20.4429 7.55709 25.6667 14 25.6667C20.4429 25.6667 25.6667 20.4429 25.6667 14C25.6667 13.2177 25.5862 12.4542 25.4398 11.7151Z" fill="#FFC107"/>
<path d="M3.6785 8.56974L7.51158 11.3808C8.54875 8.81299 11.0606 6.99999 14 6.99999C15.7844 6.99999 17.4078 7.67316 18.6439 8.77274L21.9438 5.47283C19.8602 3.53091 17.073 2.33333 14 2.33333C9.51883 2.33333 5.63266 4.86324 3.6785 8.56974Z" fill="#FF3D00"/>
<path d="M14 25.6667C17.0135 25.6667 19.7517 24.5134 21.8219 22.638L18.2111 19.5825C17.0004 20.5032 15.521 21.0012 14 21C10.9655 21 8.38891 19.0651 7.41824 16.3648L3.61374 19.2961C5.54457 23.0743 9.46574 25.6667 14 25.6667Z" fill="#4CAF50"/>
<path d="M25.4398 11.7151H24.5V11.6667H14V16.3333H20.5934C20.1333 17.6262 19.3045 18.756 18.2093 19.5831L18.2111 19.5819L21.8219 22.6374C21.5664 22.8696 25.6667 19.8333 25.6667 14C25.6667 13.2178 25.5862 12.4542 25.4398 11.7151Z" fill="#1976D2"/>
</g>
<defs>
<filter id="filter0_d_6_67" x="-4" y="0" width="36" height="36" filterUnits="userSpaceOnUse" color-interpolation-filters="sRGB">
<feFlood flood-opacity="0" result="BackgroundImageFix"/>
<feColorMatrix in="SourceAlpha" type="matrix" values="0 0 0 0 0 0 0 0 0 0 0 0 0 0 0 0 0 0 127 0" result="hardAlpha"/>
<feOffset dy="4"/>
<feGaussianBlur stdDeviation="2"/>
<feComposite in2="hardAlpha" operator="out"/>
<feColorMatrix type="matrix" values="0 0 0 0 0 0 0 0 0 0 0 0 0 0 0 0 0 0 0.25 0"/>
<feBlend mode="normal" in2="BackgroundImageFix" result="effect1_dropShadow_6_67"/>
<feBlend mode="normal" in="SourceGraphic" in2="effect1_dropShadow_6_67" result="shape"/>
</filter>
</defs>
</svg>
