<svg width="54" height="53" viewBox="0 0 54 53" fill="none" xmlns="http://www.w3.org/2000/svg">
<path fill-rule="evenodd" clip-rule="evenodd" d="M43.244 0C43.7426 0 44.2209 0.194788 44.5735 0.541512C44.9261 0.888236 45.1242 1.3585 45.1242 1.84884V8.62791H52.0181C52.5168 8.62791 52.995 8.82269 53.3476 9.16942C53.7002 9.51614 53.8983 9.9864 53.8983 10.4767C53.8983 10.9671 53.7002 11.4373 53.3476 11.7841C52.995 12.1308 52.5168 12.3256 52.0181 12.3256H45.1242V19.1046C45.1242 19.595 44.9261 20.0653 44.5735 20.412C44.2209 20.7587 43.7426 20.9535 43.244 20.9535C42.7453 20.9535 42.2671 20.7587 41.9145 20.412C41.5619 20.0653 41.3638 19.595 41.3638 19.1046V12.3256H34.4698C33.9712 12.3256 33.493 12.1308 33.1404 11.7841C32.7878 11.4373 32.5897 10.9671 32.5897 10.4767C32.5897 9.9864 32.7878 9.51614 33.1404 9.16942C33.493 8.82269 33.9712 8.62791 34.4698 8.62791H41.3638V1.84884C41.3638 1.3585 41.5619 0.888236 41.9145 0.541512C42.2671 0.194788 42.7453 0 43.244 0Z" fill="#C5C3C3"/>
<path fill-rule="evenodd" clip-rule="evenodd" d="M26.9491 0H26.8063C21.0178 0 16.4829 1.46932e-07 12.9431 0.468372C9.32315 0.946605 6.46529 1.94744 4.22162 4.15126C1.97794 6.35753 0.962649 9.16777 0.476311 12.7299C1.49423e-07 16.2081 0 20.6675 0 26.3595V26.6405C0 32.3325 1.49423e-07 36.7919 0.476311 40.2726C0.962649 43.8322 1.98045 46.6425 4.22162 48.8487C6.46529 51.055 9.32315 52.0534 12.9456 52.5316C16.4829 53 21.0178 53 26.8063 53H27.092C32.8805 53 37.4154 53 40.9552 52.5316C44.5751 52.0534 47.433 51.0526 49.6767 48.8487C51.9204 46.6425 52.9356 43.8322 53.422 40.2701C53.8983 36.7919 53.8983 32.3325 53.8983 26.6405V26.5C53.8983 26.0097 53.7002 25.5394 53.3476 25.1927C52.995 24.846 52.5168 24.6512 52.0181 24.6512C51.5195 24.6512 51.0412 24.846 50.6886 25.1927C50.336 25.5394 50.1379 26.0097 50.1379 26.5C50.1379 32.362 50.1329 36.5725 49.6967 39.7771L49.6416 40.1518L42.6874 33.9964C41.1054 32.5967 39.0872 31.7662 36.9628 31.6409C34.8385 31.5155 32.7337 32.1026 30.9928 33.3062L30.2457 33.8239C29.642 34.2402 28.9083 34.4338 28.1738 34.3706C27.4392 34.3075 26.7508 33.9917 26.2297 33.4787L15.4751 22.9034C14.1032 21.5549 12.2614 20.7696 10.3228 20.7064C8.38409 20.6432 6.49348 21.307 5.03385 22.5632L3.76285 23.6553C3.77539 19.2378 3.83806 15.8827 4.20156 13.2229C4.63275 10.07 5.45501 8.1694 6.88143 6.76428C8.31036 5.36163 10.2407 4.55554 13.447 4.13154C16.706 3.7026 20.9877 3.69767 26.9491 3.69767C27.4478 3.69767 27.926 3.50289 28.2786 3.15616C28.6312 2.80944 28.8293 2.33918 28.8293 1.84884C28.8293 1.3585 28.6312 0.888236 28.2786 0.541512C27.926 0.194788 27.4478 0 26.9491 0ZM4.20156 39.7771C4.63275 42.93 5.45501 44.8306 6.88143 46.2357C8.31036 47.6384 10.2407 48.4445 13.447 48.8685C16.706 49.2974 20.9877 49.3023 26.9491 49.3023C32.9105 49.3023 37.1923 49.2974 40.4513 48.8685C43.6576 48.4445 45.5904 47.6359 47.0194 46.2333C47.6466 45.6147 48.1591 44.893 48.5335 44.1009C48.4337 44.0414 48.3397 43.9729 48.2528 43.8963L40.173 36.7475C39.2242 35.9063 38.0131 35.4068 36.7379 35.3306C35.4628 35.2545 34.1991 35.6063 33.1537 36.3284L32.4092 36.8461C31.0815 37.7639 29.4671 38.1917 27.8502 38.0542C26.2333 37.9167 24.7175 37.2226 23.5699 36.0942L12.8153 25.5189C12.118 24.8334 11.1818 24.4342 10.1964 24.4021C9.21092 24.3701 8.24995 24.7076 7.50816 25.3463L3.76035 28.5707C3.76787 33.3727 3.81801 36.9644 4.20156 39.7771Z" fill="#C5C3C3"/>
</svg>
